<svg width="1440" height="900" viewBox="0 0 1440 900" fill="none" xmlns="http://www.w3.org/2000/svg">
<path d="M274.968 852.966C274.968 982.459 169.994 1087.43 40.5016 1087.43C-88.9906 1087.43 -193.965 982.459 -193.965 852.966C-193.965 723.474 -88.9906 618.5 40.5016 618.5C169.994 618.5 274.968 723.474 274.968 852.966Z" fill="#274FC7"/>
<circle cx="-0.43277" cy="-0.434418" r="387.566" transform="rotate(90 -0.43277 -0.434418)" fill="#264ECA"/>
<path d="M1257.69 400C1361.19 349 1310.5 375.5 1440.19 330V899.5H852C852 860.833 856.896 808.274 918.688 772.5C956.688 750.5 1128.17 752.167 1171 724.5C1240.83 702.333 1161.19 479.5 1257.69 400Z" fill="#274FC7"/>
</svg>
